<svg width="65" height="65" viewBox="0 0 65 65" fill="none" xmlns="http://www.w3.org/2000/svg">
<rect width="65" height="65" rx="20" fill="black"/>
<path d="M38.3056 16.2036C38.8112 15.6923 39.2749 15.2841 39.9495 15.0222C41.2454 14.5166 42.4732 14.359 43.8167 14.3057C43.8394 14.3051 43.8616 14.3124 43.8794 14.3263C43.8972 14.3401 43.9095 14.3597 43.9142 14.3817C44.277 16.0596 44.3031 17.9178 43.7272 19.4756C43.5201 20.0349 43.1837 20.5689 42.7181 21.0776C42.3497 21.479 41.8066 21.6842 41.708 22.2839C41.3202 24.6353 40.1604 26.7532 38.1933 28.0615C37.3067 28.6503 36.3952 29.0192 35.4587 29.1681C35.4203 29.1741 35.3854 29.1937 35.3602 29.2235C35.335 29.2532 35.3213 29.2911 35.3215 29.3302C35.3336 30.2743 35.6288 31.173 36.207 32.0263C37.5346 33.9832 39.335 35.7201 40.2454 38.0205C40.8093 39.4452 41.0262 40.9444 40.8962 42.5181C40.8921 42.5658 40.9021 42.6138 40.9251 42.6561C40.9481 42.6984 40.9829 42.7332 41.0254 42.7562C42.0504 43.3109 42.9347 43.9062 43.6784 44.5418C44.5423 45.2788 45.2782 46.3547 45.5378 47.4658C46.0015 49.451 44.8847 51.3602 43.4233 52.6981C42.2276 53.7925 40.765 54.6504 39.0357 55.2717C36.7924 56.0782 34.4765 56.4251 32.088 56.3125C31.3927 56.28 30.6913 56.1613 29.9838 55.9565C29.3614 55.7751 28.6924 55.4021 28.4419 54.7887C27.9355 53.5484 28.1286 52.5204 29.0212 51.7049C30.0178 50.7945 31.7785 50.7072 33.0415 50.9011C35.5237 51.282 37.888 50.9819 40.1343 50.0009C40.8214 49.7015 41.6354 49.1834 42.0027 48.4952C42.7828 47.0327 40.9517 45.6472 39.8769 45.0452C39.8505 45.0306 39.8196 45.0264 39.7901 45.0333C39.7606 45.0402 39.7346 45.0578 39.7171 45.0826C38.7296 46.4907 37.462 47.5928 35.9213 48.171C35.012 48.5126 33.9636 48.7265 32.7762 48.8127C31.2479 48.923 29.7143 48.852 28.1754 48.5995C26.6993 48.3569 25.4189 47.9136 24.3343 47.2696C21.9727 45.8672 20.9591 43.484 21.018 40.8004C21.0657 38.5953 21.5543 36.4978 22.9783 34.8267C23.8264 33.8324 24.9034 33.0376 25.917 32.1884C26.773 31.4719 27.4623 30.6023 27.553 29.4674C27.5961 28.9221 27.561 27.8699 27.1029 27.4641C25.3513 25.9131 23.9896 24.2465 23.3751 21.9812C23.3184 21.7741 23.2788 21.5583 23.2561 21.3338C23.2232 21.0198 23.154 20.7091 23.1438 20.3917C23.0932 18.7273 23.5527 17.2584 24.5225 15.9848C24.8792 15.5162 25.2719 15.0445 25.7005 14.5699C25.8104 14.4474 25.8558 14.266 25.8683 14.1061C25.965 12.9376 26.2919 11.9361 26.849 11.1017C27.4891 10.1433 28.2968 9.34135 29.2718 8.69587C29.3065 8.67274 29.3484 8.66277 29.3899 8.66776C29.4314 8.67274 29.4699 8.69235 29.4985 8.72308C30.7695 10.0972 31.8454 11.9169 31.8216 13.7751C31.8216 13.8152 31.8409 13.8303 31.8794 13.8204C32.5211 13.6526 33.2097 13.6602 33.9451 13.8431C35.1114 14.1326 36.2674 14.6866 37.4133 15.5052C37.6945 15.7063 37.9616 15.9387 38.2149 16.2025C38.2451 16.2342 38.2753 16.2346 38.3056 16.2036Z" fill="white"/>
</svg>
