<svg width="50" height="50" viewBox="0 0 50 50" fill="none" xmlns="http://www.w3.org/2000/svg">
<g clip-path="url(#clip0_783_80)">
<path d="M40.832 13.0633L31.3799 22.5154H27.4415V18.577L36.8936 9.1249L34.5306 6.76186L45.1643 4.79267L43.1951 15.4263L40.832 13.0633Z" fill="#3E7ECA"/>
<path d="M9.23047 36.7824L18.6826 27.3303L22.621 27.3487L22.621 31.2687L13.1689 40.7208L15.5319 43.0838L4.89825 45.053L6.86744 34.4194L9.23047 36.7824Z" fill="#3E7ECA"/>
<path d="M13.1692 9.12402L22.6214 18.5761V22.5145H18.683L9.23085 13.0624L6.86782 15.4254L4.89863 4.7918L15.5323 6.76099L13.1692 9.12402Z" fill="#3E7ECA"/>
<path d="M36.8913 40.7207L27.4392 31.2686L27.4576 27.3302L31.3776 27.3302L40.8297 36.7823L43.1927 34.4193L45.1619 45.0529L34.5283 43.0837L36.8913 40.7207Z" fill="#3E7ECA"/>
<path d="M41.819 27.4658L30.2539 27.3367L27.8714 24.9004L30.3077 22.5179L41.8728 22.647L41.9051 19.7557L49.556 25.1425L41.7868 30.3571L41.819 27.4658Z" fill="#3E7ECA"/>
<path d="M8.03643 22.3897L19.6016 22.5188L21.9727 24.9662L19.5478 27.3376L7.98262 27.2085L7.95034 30.0998L0.29942 24.713L8.06871 19.4984L8.03643 22.3897Z" fill="#3E7ECA"/>
<path d="M27.5752 8.09404L27.4461 19.6592L25.0097 22.0417L22.6272 19.6054L22.7564 8.04024L19.8651 8.00795L25.2519 0.357038L30.4665 8.12633L27.5752 8.09404Z" fill="#3E7ECA"/>
<path d="M22.4932 41.882L22.6223 30.3169L25.0698 27.9458L27.4411 30.3707L27.312 41.9358L30.2033 41.9681L24.8165 49.619L19.6019 41.8497L22.4932 41.882Z" fill="#3E7ECA"/>
</g>
<defs>
<clipPath id="clip0_783_80">
<rect width="50" height="50" fill="white"/>
</clipPath>
</defs>
</svg>
