<svg width="50" height="50" viewBox="0 0 50 50" fill="none" xmlns="http://www.w3.org/2000/svg">
<path fill-rule="evenodd" clip-rule="evenodd" d="M3.52284 33.2472L7.50766 29.2624C7.17586 27.896 7 26.4685 7 25C7 15.0589 15.0589 7 25 7C26.4685 7 27.896 7.17586 29.2624 7.50766L33.2472 3.52284C30.6871 2.53913 27.9065 2 25 2C12.2975 2 2 12.2975 2 25C2 27.9065 2.53913 30.6871 3.52284 33.2472ZM46.5893 17.0508L42.5698 21.0704C42.8514 22.3352 43 23.6503 43 25C43 34.9411 34.9411 43 25 43C23.6503 43 22.3352 42.8514 21.0704 42.5698L17.0508 46.5893C19.5282 47.5018 22.2059 48 25 48C37.7025 48 48 37.7025 48 25C48 22.2059 47.5018 19.5282 46.5893 17.0508Z" fill="#3E7ECA"/>
<path d="M42.7997 39.2634L39.2642 42.7989L30.7789 34.3136L28.6576 36.4349L27 27L36.4358 28.6568L34.3144 30.7781L42.7997 39.2634Z" fill="#3E7ECA"/>
<path d="M7.12069 10.6571L10.6562 7.12152L19.1415 15.6068L21.2628 13.4855L23 23L13.4846 21.2637L15.606 19.1423L7.12069 10.6571Z" fill="#3E7ECA"/>
<path d="M39.1426 14.3137L30.6573 22.799H27.1218V19.2635L35.607 10.7782L33.4857 8.65685L43.0317 6.88909L41.2639 16.435L39.1426 14.3137Z" fill="#3E7ECA"/>
<path d="M10.7773 35.6067L19.2626 27.1214L22.7982 27.1379L22.7982 30.657L14.3129 39.1422L16.4342 41.2636L6.88826 43.0313L8.65602 33.4854L10.7773 35.6067Z" fill="#3E7ECA"/>
</svg>
