<svg width="50" height="50" viewBox="0 0 50 50" fill="none" xmlns="http://www.w3.org/2000/svg">
<rect x="43" y="36" width="5" height="12" rx="2.5" fill="#3E7ECA"/>
<rect x="43" y="19" width="5" height="12" rx="2.5" fill="#3E7ECA"/>
<rect x="43" y="2" width="5" height="12" rx="2.5" fill="#3E7ECA"/>
<path fill-rule="evenodd" clip-rule="evenodd" d="M5 19C3.34315 19 2 20.3431 2 22V28C2 29.6569 3.34315 31 5 31H36C37.6569 31 39 29.6569 39 28V22C39 20.3431 37.6569 19 36 19H5ZM8 23C6.89543 23 6 23.8954 6 25C6 26.1046 6.89543 27 8 27C9.10457 27 10 26.1046 10 25C10 23.8954 9.10457 23 8 23ZM12 25C12 23.8954 12.8954 23 14 23C15.1046 23 16 23.8954 16 25C16 26.1046 15.1046 27 14 27C12.8954 27 12 26.1046 12 25ZM20 23C18.8954 23 18 23.8954 18 25C18 26.1046 18.8954 27 20 27C21.1046 27 22 26.1046 22 25C22 23.8954 21.1046 23 20 23Z" fill="#3E7ECA"/>
<path fill-rule="evenodd" clip-rule="evenodd" d="M5 2C3.34315 2 2 3.34315 2 5V11C2 12.6569 3.34315 14 5 14H36C37.6569 14 39 12.6569 39 11V5C39 3.34315 37.6569 2 36 2H5ZM8 6C6.89543 6 6 6.89543 6 8C6 9.10457 6.89543 10 8 10C9.10457 10 10 9.10457 10 8C10 6.89543 9.10457 6 8 6ZM12 8C12 6.89543 12.8954 6 14 6C15.1046 6 16 6.89543 16 8C16 9.10457 15.1046 10 14 10C12.8954 10 12 9.10457 12 8ZM20 6C18.8954 6 18 6.89543 18 8C18 9.10457 18.8954 10 20 10C21.1046 10 22 9.10457 22 8C22 6.89543 21.1046 6 20 6Z" fill="#3E7ECA"/>
<path fill-rule="evenodd" clip-rule="evenodd" d="M5 36C3.34315 36 2 37.3431 2 39V45C2 46.6569 3.34315 48 5 48H36C37.6569 48 39 46.6569 39 45V39C39 37.3431 37.6569 36 36 36H5ZM8 40C6.89543 40 6 40.8954 6 42C6 43.1046 6.89543 44 8 44C9.10457 44 10 43.1046 10 42C10 40.8954 9.10457 40 8 40ZM12 42C12 40.8954 12.8954 40 14 40C15.1046 40 16 40.8954 16 42C16 43.1046 15.1046 44 14 44C12.8954 44 12 43.1046 12 42ZM20 40C18.8954 40 18 40.8954 18 42C18 43.1046 18.8954 44 20 44C21.1046 44 22 43.1046 22 42C22 40.8954 21.1046 40 20 40Z" fill="#3E7ECA"/>
</svg>
