<svg width="50" height="50" viewBox="0 0 50 50" fill="none" xmlns="http://www.w3.org/2000/svg">
<path d="M17.6396 28.6802H6.59961V34.2002H17.6396V39.7202L30.5196 31.4402L17.6396 23.1602V28.6802Z" fill="#3E7ECA"/>
<path d="M32.3604 15.7998H43.4004V21.3198H32.3604V26.8398L19.4804 18.5598L32.3604 10.2798V15.7998Z" fill="#3E7ECA"/>
<path fill-rule="evenodd" clip-rule="evenodd" d="M39 7H11C8.79086 7 7 8.79086 7 11V24.08H2V11C2 6.02944 6.02944 2 11 2H39C43.9706 2 48 6.02944 48 11V21.32H43V11C43 8.79086 41.2091 7 39 7ZM2 28.68V39C2 43.9706 6.02944 48 11 48H39C43.9706 48 48 43.9706 48 39V25.92H43V39C43 41.2091 41.2091 43 39 43H11C8.79086 43 7 41.2091 7 39V28.68H2Z" fill="#3E7ECA"/>
</svg>
