<svg style="left:0px;top:0px;width:100%;height:100%;display:block;min-width:155px;min-height:135px;background-image:none;background-color:transparent">
  <g transformOrigin="0 0" transform="scale(1,1)translate(-172,-322)">
    <g>
      <g transform="translate(0.5,0.5)" style="visibility:visible">
        <rect x="180" y="330" width="50" height="50" fill="none" stroke="white" pointer-events="stroke" visibility="hidden" stroke-width="9"/>
        <rect x="180" y="330" width="50" height="50" fill="none" stroke="none" pointer-events="all"/>
        <path d="M 183.07 330 C 181.38 330 180 331.37 180 333.05 L 180 376.95 C 180 378.63 181.38 380 183.07 380 L 226.93 380 C 228.62 380 230 378.63 230 376.95 L 230 333.05 C 230 331.37 228.62 330 226.93 330 Z" fill="#fafafa" stroke="none" pointer-events="all"/>
        <rect x="180" y="330" width="50" height="50" fill="none" stroke="white" pointer-events="stroke" visibility="hidden" stroke-width="9"/>
        <rect x="180" y="330" width="50" height="50" fill="none" stroke="none" pointer-events="all"/>
        <path d="M 203.38 370.52 L 203.38 366.53 L 192.78 366.53 L 192.78 363.39 L 183.75 368.71 L 192.78 373.96 L 192.78 370.52 Z M 208.32 351.46 L 208.32 347.48 L 197.73 347.48 L 197.73 344.33 L 188.7 349.66 L 197.73 354.9 L 197.73 351.46 Z M 202.38 361.06 L 202.38 357.08 L 212.98 357.08 L 212.98 353.93 L 222 359.26 L 212.98 364.51 L 212.98 361.06 Z M 206.96 342.32 L 206.96 338.34 L 217.55 338.34 L 217.55 335.2 L 226.58 340.52 L 217.55 345.77 L 217.55 342.32 Z M 183.07 330 C 181.38 330 180 331.37 180 333.05 L 180 376.95 C 180 378.63 181.38 380 183.07 380 L 226.93 380 C 228.62 380 230 378.63 230 376.95 L 230 333.05 C 230 331.37 228.62 330 226.93 330 Z M 183.07 331.38 L 226.93 331.38 C 227.88 331.38 228.62 332.11 228.62 333.05 L 228.62 376.95 C 228.62 377.89 227.88 378.62 226.93 378.62 L 183.07 378.62 C 182.12 378.62 181.38 377.89 181.38 376.95 L 181.38 333.05 C 181.38 332.11 182.12 331.38 183.07 331.38 Z" fill="#005073" stroke="none" pointer-events="all"/>
      </g>
    </g>
    <g/>
    <g/>
  </g>
</svg>